<svg xmlns="http://www.w3.org/2000/svg" width="71.462" height="71.462" viewBox="0 0 71.462 71.462">
  <circle id="Elipse_12" data-name="Elipse 12" cx="35.731" cy="35.731" r="35.731" fill="#e97d00"/>
  <g id="Grupo_33" data-name="Grupo 33" transform="translate(-739.87 -1599.908)">
    <g id="Grupo_32" data-name="Grupo 32">
      <g id="Grupo_31" data-name="Grupo 31">
        <path id="Caminho_35" data-name="Caminho 35" d="M783.7,1648.642h-3.989a1.128,1.128,0,0,0-1.127,1.127v1.626a1.128,1.128,0,0,0,1.127,1.127H783.7a1.128,1.128,0,0,0,1.127-1.127v-1.626A1.128,1.128,0,0,0,783.7,1648.642Zm-.258,2.495H779.97v-1.11h3.473Z" fill="#fff"/>
      </g>
      <path id="Caminho_36" data-name="Caminho 36" d="M788.114,1640.838a31.165,31.165,0,0,0-7.316-1.692h-.008a.5.5,0,0,1-.417-.5v-2.63a6.6,6.6,0,0,0,2.892-5.26h1.976a3.008,3.008,0,0,0,3.01-3.011v-2.071a12.65,12.65,0,1,0-25.3,0v2.069a3.015,3.015,0,0,0,2.318,2.929v1.325a1.985,1.985,0,0,0,1.983,1.984h1.636a7.752,7.752,0,0,0,1.941,2.038v2.625a.5.5,0,0,1-.417.5,31.139,31.139,0,0,0-7.324,1.692,6.545,6.545,0,0,0-3.774,5.962v2.223a.693.693,0,0,0,1.385,0V1646.8a5.158,5.158,0,0,1,2.965-4.7,18.139,18.139,0,0,1,3.623-1.034l1.973,3.606a2.608,2.608,0,0,0,2.281,1.349c.331,0,.272-.021,3.367-.468v11.322h-9.426v-3.129a.692.692,0,0,0-1.385,0v3.129h-2.706a.713.713,0,0,1-.692-.731v-3.864a.693.693,0,0,0-1.385,0v3.864a2.1,2.1,0,0,0,2.077,2.115h28.419a2.1,2.1,0,0,0,2.077-2.115V1646.8a6.544,6.544,0,0,0-3.774-5.961Zm-7.18-.275c.423.059.956.138,1.543.237l-1.753,3.2a1.218,1.218,0,0,1-1.24.617l-2.388-.353Zm2.309-16.522c-.188-1.853-1.156-2.67-2.511-3.887a2.658,2.658,0,0,0-3.654.124,4.6,4.6,0,0,1-3.273,1.354H770.84a3.1,3.1,0,0,0-2.846,2.409h-1.183a8.949,8.949,0,0,1,17.58,0Zm-16.583,1.385h1.261l.007,3.941h-1.273C766.657,1625.546,766.65,1625.735,766.66,1625.426Zm17.888,3.941h-1.28l.007-3.941h1.268c.01.308,0,.118,0,3.941Zm-20.212-1.626v-2.069a11.266,11.266,0,1,1,22.531,0v2.07a1.627,1.627,0,0,1-.934,1.472v-3.494a10.331,10.331,0,1,0-20.663,0v3.492a1.631,1.631,0,0,1-.934-1.471Zm2.917,4.853a.6.6,0,0,1-.6-.6v-1.243h1.277a6.09,6.09,0,0,0,.3,1.842Zm2.222-.684a4.747,4.747,0,0,1-.16-1.232l-.01-5.944a1.723,1.723,0,0,1,1.535-1.717H773.8a5.98,5.98,0,0,0,4.251-1.759,1.273,1.273,0,0,1,1.749-.074c1.375,1.233,2.09,1.792,2.087,3.548l-.011,5.948a5.312,5.312,0,0,1-2.556,4.381q-.036.023-.069.048a7.771,7.771,0,0,1-3.658,1.342,7.6,7.6,0,0,1-3.367-1.157h1.3a1.961,1.961,0,1,0,0-3.922h-2.708a1.952,1.952,0,0,0-1.346.538Zm1.346,2a.576.576,0,0,1,0-1.152h2.708a.576.576,0,0,1,0,1.152Zm.894,10.711a1.215,1.215,0,0,1-1.239-.616l-1.754-3.2c.588-.1,1.12-.178,1.544-.237l3.838,3.7Zm-.054-4.635a1.9,1.9,0,0,0,.554-1.343v-1.772a8.383,8.383,0,0,0,3.37.966h.026a8.373,8.373,0,0,0,3.377-.969v1.775a1.911,1.911,0,0,0,.552,1.342l-3.94,3.8Zm18.842,16.156a.713.713,0,0,1-.692.731H787.1v-3.129a.693.693,0,0,0-1.385,0v3.129h-9.426V1645.55c3.091.447,3.033.468,3.363.468a2.609,2.609,0,0,0,2.282-1.35l1.973-3.6a18.108,18.108,0,0,1,3.626,1.034,5.158,5.158,0,0,1,2.965,4.7v9.342Z" fill="#fff"/>
    </g>
  </g>
</svg>
