<svg xmlns="http://www.w3.org/2000/svg" width="71.462" height="71.462" viewBox="0 0 71.462 71.462">
  <circle id="Elipse_13" data-name="Elipse 13" cx="35.731" cy="35.731" r="35.731" fill="#e97d00"/>
  <g id="Grupo_53" data-name="Grupo 53" transform="translate(-739.87 -1728.693)">
    <g id="Grupo_52" data-name="Grupo 52">
      <g id="Grupo_51" data-name="Grupo 51">
        <path id="Caminho_45" data-name="Caminho 45" d="M764.405,1774.039a2.273,2.273,0,1,0,2.273,2.273A2.273,2.273,0,0,0,764.405,1774.039Zm0,3.03a.758.758,0,1,1,.758-.757A.757.757,0,0,1,764.405,1777.069Z" fill="#fff"/>
        <path id="Caminho_46" data-name="Caminho 46" d="M788.644,1774.039a2.273,2.273,0,1,0,2.272,2.273A2.274,2.274,0,0,0,788.644,1774.039Zm0,3.03a.758.758,0,1,1,.757-.757A.757.757,0,0,1,788.644,1777.069Z" fill="#fff"/>
        <path id="Caminho_47" data-name="Caminho 47" d="M798.67,1763.258l-5.217-5.877a2.277,2.277,0,0,0-1.7-.763h-6.893v-4.545a2.274,2.274,0,0,0-2.272-2.272H756.073a2.274,2.274,0,0,0-2.272,2.272v19.694a.758.758,0,0,0,.758.758h.757v2.272a2.274,2.274,0,0,0,2.272,2.272h1.576a5.295,5.295,0,0,0,10.483,0H783.4a5.295,5.295,0,0,0,10.483,0h3.09a2.275,2.275,0,0,0,2.273-2.272v-10.029A2.268,2.268,0,0,0,798.67,1763.258Zm-43.354,7.752v-18.937a.757.757,0,0,1,.757-.757h26.511a.757.757,0,0,1,.757.757v18.937Zm3.848,4.544h-1.576a.757.757,0,0,1-.757-.757v-2.273H760.7A5.29,5.29,0,0,0,759.164,1775.554Zm5.241,4.545a3.787,3.787,0,1,1,3.788-3.787A3.788,3.788,0,0,1,764.405,1780.1Zm7.575-4.545h-2.333a5.3,5.3,0,0,0-1.538-3.03h3.871Zm6.817,0h-5.3v-3.03h5.3Zm4.6,0h-3.09v-3.03h4.628A5.29,5.29,0,0,0,783.4,1775.554Zm5.242,4.545a3.787,3.787,0,1,1,3.787-3.787A3.788,3.788,0,0,1,788.644,1780.1Zm9.089-5.3a.758.758,0,0,1-.758.757h-3.09a5.305,5.305,0,0,0-5.241-4.544h-3.788v-12.877h3.03v7.574a2.275,2.275,0,0,0,2.272,2.273h7.575Zm0-8.332h-7.575a.758.758,0,0,1-.757-.758v-7.574h2.348a.759.759,0,0,1,.57.253l5.22,5.878a.763.763,0,0,1,.194.5v1.7Z" fill="#fff"/>
      </g>
    </g>
  </g>
</svg>
