<svg xmlns="http://www.w3.org/2000/svg" width="71.462" height="71.462" viewBox="0 0 71.462 71.462">
  <circle id="Elipse_9" data-name="Elipse 9" cx="35.731" cy="35.731" r="35.731" fill="#e97d00"/>
  <g id="Grupo_30" data-name="Grupo 30" transform="translate(-740.406 -1233.669)">
    <g id="Grupo_29" data-name="Grupo 29">
      <g id="Grupo_28" data-name="Grupo 28">
        <path id="Caminho_29" data-name="Caminho 29" d="M776.012,1275.273a.775.775,0,0,0-1.033-.368,12.351,12.351,0,0,1-1.962.734.774.774,0,0,0-.551.595l-.821,4.1a.872.872,0,0,1-.853.7h-2.238a.872.872,0,0,1-.853-.7l-.821-4.1a.774.774,0,0,0-.551-.595,12.347,12.347,0,0,1-2.725-1.129.779.779,0,0,0-.811.03l-3.481,2.322a.873.873,0,0,1-1.1-.109l-1.583-1.583a.873.873,0,0,1-.108-1.1l2.321-3.481a.774.774,0,0,0,.03-.811,12.348,12.348,0,0,1-1.129-2.725.773.773,0,0,0-.595-.551l-4.1-.821a.872.872,0,0,1-.7-.852v-2.239a.872.872,0,0,1,.7-.853l4.1-.82a.776.776,0,0,0,.595-.552,12.341,12.341,0,0,1,1.129-2.724.774.774,0,0,0-.03-.811l-2.321-3.481a.872.872,0,0,1,.109-1.1l1.582-1.583a.873.873,0,0,1,1.1-.109l3.482,2.322a.776.776,0,0,0,.811.03,12.346,12.346,0,0,1,2.724-1.129.773.773,0,0,0,.551-.6l.821-4.1a.872.872,0,0,1,.853-.7h2.238a.872.872,0,0,1,.853.7l.821,4.1a.773.773,0,0,0,.551.6,12.327,12.327,0,0,1,2.724,1.129.776.776,0,0,0,.811-.03l3.482-2.322a.873.873,0,0,1,1.1.109l1.583,1.583a.873.873,0,0,1,.108,1.1l-2.321,3.481a.774.774,0,0,0-.03.811,12.36,12.36,0,0,1,1.129,2.724.772.772,0,0,0,.594.552l4.1.821a.871.871,0,0,1,.7.852v2.239a.872.872,0,0,1-.7.853l-4.1.82a.776.776,0,0,0-.594.552,12.367,12.367,0,0,1-.757,2.009.776.776,0,1,0,1.4.671,13.913,13.913,0,0,0,.714-1.8l3.645-.729a2.427,2.427,0,0,0,1.946-2.374v-2.239a2.427,2.427,0,0,0-1.946-2.374l-3.645-.729a13.8,13.8,0,0,0-.906-2.185l2.063-3.093a2.428,2.428,0,0,0-.3-3.055l-1.583-1.583a2.428,2.428,0,0,0-3.055-.3l-3.093,2.062a13.889,13.889,0,0,0-2.185-.905l-.729-3.646a2.428,2.428,0,0,0-2.374-1.946h-2.238a2.429,2.429,0,0,0-2.375,1.947l-.729,3.645a13.878,13.878,0,0,0-2.184.905l-3.094-2.062a2.428,2.428,0,0,0-3.055.3l-1.582,1.583a2.427,2.427,0,0,0-.3,3.055l2.062,3.094a13.883,13.883,0,0,0-.905,2.184l-3.645.729a2.429,2.429,0,0,0-1.947,2.375v2.238a2.428,2.428,0,0,0,1.947,2.374l3.645.729a13.857,13.857,0,0,0,.905,2.185l-2.062,3.093a2.427,2.427,0,0,0,.3,3.055l1.582,1.583a2.427,2.427,0,0,0,3.055.3l3.094-2.062a13.851,13.851,0,0,0,2.185.905l.729,3.645a2.427,2.427,0,0,0,2.374,1.946h2.238a2.427,2.427,0,0,0,2.374-1.946L773.9,1277a13.867,13.867,0,0,0,1.749-.689A.776.776,0,0,0,776.012,1275.273Z" fill="#fff"/>
        <path id="Caminho_30" data-name="Caminho 30" d="M776.392,1268.022a.774.774,0,0,0,1.044-.336,8.72,8.72,0,0,0-13.849-10.218.775.775,0,1,0,1.082,1.111,7.169,7.169,0,0,1,11.386,8.4A.776.776,0,0,0,776.392,1268.022Z" fill="#fff"/>
        <path id="Caminho_31" data-name="Caminho 31" d="M762.412,1260.393a.775.775,0,0,0-.986.481,8.721,8.721,0,0,0,13.356,9.9.775.775,0,1,0-.91-1.256,7.172,7.172,0,0,1-10.979-8.144A.775.775,0,0,0,762.412,1260.393Z" fill="#fff"/>
        <path id="Caminho_32" data-name="Caminho 32" d="M798.432,1278.738l-2.243-.449a9.313,9.313,0,0,0-.492-1.187l1.269-1.9a1.862,1.862,0,0,0-.232-2.344l-1.04-1.04a1.863,1.863,0,0,0-2.343-.232l-1.9,1.269a9.384,9.384,0,0,0-1.188-.491l-.448-2.244a1.861,1.861,0,0,0-1.821-1.492H786.52a1.861,1.861,0,0,0-1.821,1.492l-.449,2.244a9.435,9.435,0,0,0-1.187.491l-1.9-1.269a1.863,1.863,0,0,0-2.343.232l-1.041,1.04a1.865,1.865,0,0,0-.232,2.344l1.269,1.9a9.424,9.424,0,0,0-.633,1.648.776.776,0,1,0,1.494.418,7.845,7.845,0,0,1,.717-1.731.777.777,0,0,0-.03-.811l-1.526-2.288a.307.307,0,0,1,.039-.386l1.04-1.04a.307.307,0,0,1,.385-.038l2.288,1.526a.777.777,0,0,0,.811.03,7.783,7.783,0,0,1,1.732-.717.776.776,0,0,0,.551-.595l.539-2.7a.307.307,0,0,1,.3-.246h1.471a.307.307,0,0,1,.3.246l.539,2.7a.776.776,0,0,0,.551.595,7.849,7.849,0,0,1,1.732.717.777.777,0,0,0,.811-.03l2.288-1.526a.306.306,0,0,1,.385.039l1.04,1.04a.306.306,0,0,1,.039.385l-1.526,2.288a.774.774,0,0,0-.03.811,7.85,7.85,0,0,1,.717,1.732.776.776,0,0,0,.6.551l2.7.539a.308.308,0,0,1,.246.3v1.471a.308.308,0,0,1-.246.3l-2.7.539a.775.775,0,0,0-.6.551,7.828,7.828,0,0,1-.717,1.732.774.774,0,0,0,.03.811l1.525,2.288a.3.3,0,0,1-.038.385l-1.04,1.04a.307.307,0,0,1-.386.039l-2.288-1.526a.774.774,0,0,0-.811-.03,7.828,7.828,0,0,1-1.731.717.776.776,0,0,0-.551.595l-.54,2.7a.306.306,0,0,1-.3.246H786.52a.308.308,0,0,1-.3-.246l-.539-2.7a.776.776,0,0,0-.552-.595,7.847,7.847,0,0,1-1.731-.717.774.774,0,0,0-.811.03l-2.288,1.525a.306.306,0,0,1-.386-.038l-1.04-1.04a.308.308,0,0,1-.038-.386l1.526-2.288a.777.777,0,0,0,.03-.811,7.776,7.776,0,0,1-.717-1.731.776.776,0,0,0-.6-.551l-2.7-.54a.3.3,0,0,1-.246-.3v-1.471a.307.307,0,0,1,.246-.3l.165-.033a.776.776,0,1,0-.3-1.521l-.165.033a1.861,1.861,0,0,0-1.492,1.821v1.471a1.861,1.861,0,0,0,1.492,1.821l2.244.448a9.391,9.391,0,0,0,.491,1.188l-1.269,1.9a1.863,1.863,0,0,0,.232,2.343l1.04,1.04a1.862,1.862,0,0,0,2.344.232l1.9-1.269a9.3,9.3,0,0,0,1.187.492l.449,2.243a1.862,1.862,0,0,0,1.821,1.493h1.471a1.862,1.862,0,0,0,1.821-1.493l.449-2.243a9.293,9.293,0,0,0,1.187-.492l1.9,1.269a1.86,1.86,0,0,0,2.343-.232l1.041-1.04a1.863,1.863,0,0,0,.232-2.343l-1.269-1.9a9.4,9.4,0,0,0,.491-1.188l2.243-.448a1.862,1.862,0,0,0,1.493-1.821v-1.471A1.862,1.862,0,0,0,798.432,1278.738Z" fill="#fff"/>
        <path id="Caminho_33" data-name="Caminho 33" d="M787.255,1278.5a2.8,2.8,0,0,1,2.793,2.792.776.776,0,1,0,1.551,0,4.342,4.342,0,1,0-1.69,3.44.776.776,0,1,0-.948-1.228,2.767,2.767,0,0,1-1.706.581,2.793,2.793,0,0,1,0-5.585Z" fill="#fff"/>
        <path id="Caminho_34" data-name="Caminho 34" d="M774.4,1263.712a4.726,4.726,0,1,0-4.726,4.726A4.731,4.731,0,0,0,774.4,1263.712Zm-7.9,0a3.174,3.174,0,1,1,3.175,3.174A3.179,3.179,0,0,1,766.5,1263.712Z" fill="#fff"/>
      </g>
    </g>
  </g>
</svg>
