<svg xmlns="http://www.w3.org/2000/svg" width="71.462" height="71.462" viewBox="0 0 71.462 71.462">
  <circle id="Elipse_11" data-name="Elipse 11" cx="35.731" cy="35.731" r="35.731" fill="#e97d00"/>
  <g id="Grupo_25" data-name="Grupo 25" transform="translate(-740.406 -1484.191)">
    <path id="Caminho_25" data-name="Caminho 25" d="M786.161,1523.811c1.07,3.459,2.113,6.828,3.157,10.2.483,1.559,1.005,3.109,1.433,4.684a1.277,1.277,0,0,1-.169,1.281c-.314.324-.9.2-1.282.052-1.514-.591-2.992-1.275-4.571-1.962-.851,1.371-1.639,2.717-2.514,4l-.008.012a1.222,1.222,0,0,1-2.09-.186,1.263,1.263,0,0,1-.055-.14c-1.3-4.044-2.541-8.107-3.9-12.493-.2.572-.311.859-.4,1.153-1.17,3.768-2.319,7.544-3.527,11.3a1.464,1.464,0,0,1-.1.241,1.215,1.215,0,0,1-1.923.266,1.578,1.578,0,0,1-.169-.2c-.865-1.255-1.633-2.578-2.481-3.942-1.39.6-2.707,1.222-4.067,1.732a2.4,2.4,0,0,1-.415.112,1.231,1.231,0,0,1-1.454-1.258,2.082,2.082,0,0,1,.08-.513c1.429-4.751,2.921-9.483,4.426-14.323-.419-.073-.777-.134-1.135-.2-1.948-.354-2.753-1.457-2.467-3.4q.141-.958.348-1.908a1.9,1.9,0,0,0-.684-2,15.2,15.2,0,0,1-1.671-1.647,2.456,2.456,0,0,1,0-3.51,18.364,18.364,0,0,1,1.744-1.718,1.784,1.784,0,0,0,.623-1.824c-.155-.767-.313-1.537-.395-2.314a2.467,2.467,0,0,1,2.117-2.976,18.242,18.242,0,0,1,2.318-.352,1.836,1.836,0,0,0,1.638-1.182,20.607,20.607,0,0,1,.932-1.928c.922-1.63,2.056-1.987,3.772-1.2a16.305,16.305,0,0,1,1.708.918,2.032,2.032,0,0,0,2.3.018,16.381,16.381,0,0,1,1.893-1,2.45,2.45,0,0,1,3.54,1.152,23.16,23.16,0,0,1,1.036,2.1,1.8,1.8,0,0,0,1.574,1.116,20.947,20.947,0,0,1,2.448.379,2.62,2.62,0,0,1,2.033,2.717c-.065.879-.373,1.748-.37,2.621a3.186,3.186,0,0,0,.589,1.707,18.473,18.473,0,0,0,1.581,1.587,2.561,2.561,0,0,1-.012,3.9,14.14,14.14,0,0,1-1.471,1.415,1.923,1.923,0,0,0-.7,2.086c.137.6.246,1.2.338,1.807.3,1.972-.474,3.06-2.422,3.428C786.972,1523.68,786.61,1523.735,786.161,1523.811Zm-21.4-16.133c.039,1.625-.272,2.206-1.7,3.526-1.853,1.713-1.907,1.777-.01,3.382a4.3,4.3,0,0,1,1.52,4.718c-.567,2.375-.5,2.455,1.96,2.647a4.229,4.229,0,0,1,3.915,2.743c1.074,2.468.929,2.52,3.4,1.07a4.127,4.127,0,0,1,4.521-.043c2.45,1.429,2.354,1.566,3.522-1.136a4.006,4.006,0,0,1,3.575-2.6c3.059-.3,2.727-.308,2.179-3a3.933,3.933,0,0,1,1.225-4.059c2.407-2.16,2.334-1.894-.045-4.074a3.594,3.594,0,0,1-1.24-3.57c.08-.4.15-.8.222-1.2.333-1.862.337-2-1.505-2.1a4.736,4.736,0,0,1-4.771-3.542,2.524,2.524,0,0,0-.171-.37c-.565-1.1-.86-1.276-1.888-.552a5.16,5.16,0,0,1-6.668-.031c-.054-.041-.12-.065-.177-.1-.743-.459-1.351-.3-1.6.524a5.291,5.291,0,0,1-5.666,4.125c-.938-.014-1.2.593-1,1.464C764.534,1506.327,764.667,1507.167,764.762,1507.678Zm-1.022,30.03c1.279-.554,2.324-.957,3.321-1.453a1.263,1.263,0,0,1,1.926.617c.557.989,1.193,1.934,1.9,3.065l3.87-12.5c-.349.166-.531.243-.7.335-2.615,1.4-3.787.991-5.045-1.734-.275-.595-.588-1.173-1.017-2.024Zm20.548-13.7c-.624,1.227-1.069,2.208-1.606,3.136a2.45,2.45,0,0,1-3.384,1.156c-.55-.218-1.071-.51-1.775-.85l3.81,12.27c.148-.068.233-.079.262-.124.527-.833,1.048-1.671,1.57-2.506.8-1.283.935-1.324,2.284-.728.947.418,1.9.833,3.1,1.36Z" fill="#fff"/>
    <path id="Caminho_26" data-name="Caminho 26" d="M776.129,1523.273a10.36,10.36,0,1,1,10.4-10.293A10.383,10.383,0,0,1,776.129,1523.273Zm.008-1.831a8.523,8.523,0,1,0-8.538-8.477A8.548,8.548,0,0,0,776.137,1521.442Z" fill="#fff"/>
    <path id="Caminho_27" data-name="Caminho 27" d="M768.96,1512.462a7.247,7.247,0,0,1,6.9-6.752c.605,0,1.114.173,1.146.869s-.444.881-1.057.964c-3.189.428-4.735,1.988-5.16,5.172-.079.591-.277,1.113-.966,1.08C768.993,1513.754,768.917,1513.123,768.96,1512.462Z" fill="#fff"/>
  </g>
</svg>
