<?xml version="1.0" encoding="utf-8"?>
<!-- Generator: Adobe Illustrator 25.2.1, SVG Export Plug-In . SVG Version: 6.00 Build 0)  -->
<svg version="1.1" id="Camada_1" xmlns="http://www.w3.org/2000/svg" xmlns:xlink="http://www.w3.org/1999/xlink" x="0px" y="0px"
	 viewBox="0 0 266.78 56.8" style="enable-background:new 0 0 266.78 56.8;" xml:space="preserve">
<style type="text/css">
	.st0{fill:#E97E03;}
	.st1{fill:#70706F;}
	.st2{fill:#FFFFFF;}
</style>
<g>
	<path class="st0" d="M260.14,36.09c-0.79-2.14-10.61-30.88-10.61-30.88s-1.16-3.66-4.8-3.66h-13.6h-25.27h-35.78H146.5h-15.52l0,0
		h-19.73c0,0,3.01,1.38,4.32,4.96c0.79,2.14,10.61,30.88,10.61,30.88s1.16,3.66,4.79,3.66h15.52h23.36h35.78h25.5h13.6v0h19.73
		C264.47,41.05,261.46,39.67,260.14,36.09z"/>
	<path class="st1" d="M35.02,28.01c0,3.14-0.96,5.35-2.88,6.65c-1.56,1.05-4.14,1.68-7.75,1.87c-1.46,0.08-2.95,0.14-4.48,0.17
		l-3.11,0.08c-5.42,0-9.18-0.85-11.31-2.54c-1.79-1.43-2.8-3.78-3.02-7.04c-0.1-1.45-0.15-3.49-0.15-6.11c0-4.93,0.29-8.2,0.88-9.82
		c0.42-1.16,1.08-2.21,1.99-3.12c0.87-0.87,2.07-1.54,3.6-2.02c2.44-0.77,5.83-1.15,10.16-1.15c4.35,0,7.47,0.21,9.37,0.62
		c2.67,0.58,4.44,1.87,5.32,3.87c0.65,1.48,0.97,3.56,0.97,6.26h-7.44v-1.96c0-1.25-0.38-2.17-1.15-2.76
		c-0.81-0.6-2.99-0.91-6.54-0.91h-1.1c-3.53,0-5.84,0.42-6.94,1.27c-1.09,0.85-1.64,2.59-1.64,5.22v8.16c0,3.09,0.65,5,1.94,5.74
		c0.86,0.49,1.77,0.79,2.73,0.9c1.04,0.12,2.49,0.18,4.33,0.18c2.23,0,3.72-0.02,4.49-0.08c1.37-0.21,2.38-0.58,3.04-1.09
		c0.55-0.42,0.9-1.11,1.05-2.04c0.09-0.55,0.16-1.58,0.2-3.08h7.44V28.01z M64.41,36.45h-6.46l-2.11-4.94H41.56l-2.12,4.94h-6.55
		l10.99-26.22h9.27L64.41,36.45z M54.34,27.71l-5.67-13.68l-0.04,0.01l-5.68,13.67H54.34z M89.32,28.86
		c0.03,1.4-0.23,2.69-0.77,3.88c-0.53,1.12-1.29,1.98-2.27,2.56c-1.54,0.91-4.7,1.36-9.45,1.36h-2.37c-2.2,0-3.83-0.06-4.9-0.2
		c-1.9-0.23-3.38-0.72-4.45-1.45c-1.4-0.96-2.2-2.29-2.38-4c-0.09-0.73-0.13-1.7-0.13-2.88h6.29c0,0.3-0.03,0.55-0.08,0.73
		c0.05,0.74,0.1,1.25,0.17,1.53c0.15,0.6,0.42,1.05,0.84,1.35c0.43,0.3,0.98,0.5,1.68,0.61c0.8,0.12,1.79,0.2,2.97,0.22
		c0.7,0.02,1.16,0.04,1.36,0.08c1.55-0.06,2.52-0.1,2.9-0.13c1.28-0.11,2.2-0.31,2.77-0.58c0.98-0.46,1.46-1.56,1.46-3.29
		c0-1.23-0.31-2.09-0.92-2.59c-0.19-0.16-0.48-0.29-0.87-0.41c-0.53-0.16-1.33-0.26-2.4-0.31c-0.39-0.02-1-0.04-1.83-0.08
		l-3.32-0.12c-2.39-0.09-4.31-0.31-5.75-0.68c-0.89-0.22-1.66-0.52-2.31-0.9c-1.79-1.06-2.71-2.97-2.77-5.73
		c-0.06-2.95,0.78-5.01,2.5-6.15c1.65-1.1,4.93-1.65,9.86-1.65c3.15,0,5.23,0.05,6.28,0.15c1.97,0.18,3.52,0.64,4.62,1.37
		c1.11,0.74,1.85,1.71,2.22,2.93c0.25,0.79,0.36,1.96,0.36,3.5h-6.37V16.9c0-0.97-0.22-1.64-0.65-2.03c-0.53-0.47-1.85-0.7-3.96-0.7
		h-2.59c-2.5,0-4.13,0.23-4.87,0.7c-0.4,0.25-0.68,0.56-0.85,0.93c-0.19,0.44-0.28,1.02-0.26,1.73c0.03,0.79,0.12,1.41,0.29,1.88
		c0.22,0.66,1.08,1.11,2.58,1.33c0.63,0.1,1.38,0.17,2.24,0.22l2.45,0.13c2.77,0.14,4.6,0.26,5.5,0.37
		c2.44,0.27,4.12,0.72,5.03,1.34c0.9,0.62,1.5,1.52,1.82,2.69c0.13,0.54,0.21,1,0.24,1.39C89.24,27.24,89.27,27.9,89.32,28.86
		 M119.01,36.45h-6.45l-2.11-4.94H96.17l-2.12,4.94H87.5l10.99-26.22h9.27L119.01,36.45z M108.95,27.71l-5.67-13.68l-0.03,0.01
		l-5.68,13.67H108.95z"/>
	<path class="st2" d="M163.76,14.43c0,3.44-0.57,5.73-1.73,6.83c-1.07,1.01-2.8,1.69-5.23,2.04v0.12c2.3,0.17,4.04,0.8,5.22,1.86
		c0.95,1.2,1.43,2.97,1.43,5.29v5.78h-7.59v-4.7c0-2.28-0.4-3.78-1.2-4.49c-0.84-0.76-2.46-1.13-4.82-1.13h-10.52v10.32h-7.54V5.16
		h19.31c5.09,0,8.53,0.79,10.31,2.37C162.98,8.92,163.76,11.23,163.76,14.43 M156.18,15.41c0-1.97-0.3-3.3-0.9-4.01
		c-0.77-0.74-2.55-1.12-5.34-1.12h-10.62v10.66h10.84c2.31,0,3.96-0.4,4.92-1.2C155.81,18.99,156.18,17.54,156.18,15.41
		 M193.03,28.94c0,2.78-0.97,4.78-2.89,6.01c-1.14,0.73-2.71,1.18-4.68,1.37c-1.96,0.18-4.32,0.28-7.11,0.28
		c-2.03,0-3.78-0.08-5.22-0.23c-1.52-0.16-2.84-0.49-3.97-1c-1.21-0.54-2.11-1.41-2.71-2.61c-0.59-1.16-0.9-2.48-0.9-3.96V10.16
		h6.37v19.05c0,1.09,0.43,1.86,1.28,2.31c0.97,0.51,2.86,0.77,5.67,0.77c0.53,0,0.91,0.03,1.15,0.06c1.45-0.04,2.42-0.09,2.91-0.15
		c1.16-0.14,2.05-0.41,2.67-0.83c0.72-0.49,1.09-1.53,1.09-3.11V10.16h6.33V28.94z M221.53,19.03c0,3.21-0.69,5.49-2.07,6.82
		c-1.43,1.38-4.2,2.06-8.31,2.06h-9.63v8.46h-6.33V10.16h14.43c2.58,0,4.8,0.19,6.64,0.57c1.93,0.4,3.29,1.27,4.08,2.59
		C221.13,14.63,221.53,16.54,221.53,19.03 M215.27,19.24c0.04-1.64-0.2-2.81-0.7-3.5c-0.34-0.46-0.88-0.8-1.64-0.99
		c-0.75-0.2-1.83-0.3-3.25-0.3h-8.18v9.16h8.01c2.29,0,3.77-0.23,4.44-0.7c0.59-0.42,0.94-0.84,1.06-1.25
		C215.17,21.08,215.25,20.28,215.27,19.24 M244.98,36.38h-22.74V10.16h22.65v4.3h-16.31v6.57h15.48v4.09h-15.48v6.96h16.41V36.38z"
		/>
	<g>
		<path class="st1" d="M71.28,47.87h1.7l2.52,6.07l2.5-6.07h1.69v7.18h-1.14v-4.24c0-0.15,0.01-0.39,0.02-0.73
			c0.01-0.34,0.01-0.7,0.01-1.09l-2.5,6.06H74.9L72.37,49v0.22c0,0.17,0.01,0.44,0.02,0.8c0.01,0.36,0.02,0.63,0.02,0.79v4.24h-1.13
			V47.87z"/>
		<path class="st1" d="M87.73,47.87h1.34l3.18,7.18h-1.3l-0.91-2.15h-3.44l-0.95,2.15h-1.22L87.73,47.87z M89.7,52.11l-1.35-3.17
			l-1.4,3.17H89.7z"/>
		<path class="st1" d="M97.14,47.87h3.99c0.66,0,1.2,0.08,1.63,0.24c0.81,0.31,1.21,0.87,1.21,1.7c0,0.43-0.11,0.78-0.33,1.06
			c-0.22,0.28-0.52,0.49-0.91,0.66c0.34,0.11,0.6,0.26,0.78,0.45c0.17,0.19,0.27,0.49,0.29,0.9l0.04,0.96
			c0.01,0.28,0.04,0.48,0.08,0.61c0.07,0.23,0.2,0.38,0.38,0.44v0.16h-1.46c-0.04-0.06-0.07-0.14-0.1-0.24
			c-0.02-0.1-0.04-0.29-0.06-0.57l-0.07-1.2c-0.03-0.47-0.23-0.78-0.62-0.94c-0.22-0.09-0.57-0.13-1.04-0.13h-2.63v3.08h-1.19V47.87
			z M101,51.16c0.54,0,0.97-0.09,1.29-0.28c0.32-0.18,0.47-0.51,0.47-0.99c0-0.51-0.22-0.86-0.66-1.05
			c-0.24-0.1-0.55-0.15-0.95-0.15h-2.82v2.45H101z"/>
		<path class="st1" d="M115.7,48.39c0.61,0.48,0.94,1.03,1.01,1.63h-1.16c-0.13-0.46-0.39-0.83-0.77-1.1
			c-0.38-0.27-0.92-0.41-1.62-0.41c-0.85,0-1.53,0.25-2.06,0.75c-0.52,0.5-0.78,1.26-0.78,2.29c0,0.84,0.24,1.53,0.71,2.05
			c0.47,0.52,1.18,0.79,2.11,0.79c0.86,0,1.52-0.28,1.96-0.83c0.24-0.29,0.42-0.67,0.53-1.14h1.16c-0.1,0.76-0.44,1.39-1.01,1.9
			c-0.69,0.62-1.62,0.92-2.79,0.92c-1.01,0-1.85-0.25-2.54-0.76c-0.9-0.67-1.35-1.7-1.35-3.1c0-1.06,0.34-1.93,1.01-2.61
			c0.73-0.74,1.74-1.1,3.03-1.1C114.25,47.68,115.1,47.92,115.7,48.39z"/>
		<path class="st1" d="M122.12,47.87h6.37v0.88h-5.21v2.18h4.82v0.83h-4.82v2.44h5.3v0.86h-6.46V47.87z"/>
		<path class="st1" d="M133.84,47.87h1.4l4.37,5.8v-5.8h1.13v7.18h-1.33l-4.44-5.8v5.8h-1.14V47.87z"/>
		<path class="st1" d="M148.9,47.87h1.34l3.19,7.18h-1.3l-0.92-2.15h-3.44l-0.95,2.15h-1.22L148.9,47.87z M150.87,52.11l-1.35-3.17
			l-1.4,3.17H150.87z"/>
		<path class="st1" d="M158.31,47.87h3.99c0.66,0,1.2,0.08,1.63,0.24c0.81,0.31,1.21,0.87,1.21,1.7c0,0.43-0.1,0.78-0.33,1.06
			c-0.22,0.28-0.52,0.49-0.91,0.66c0.34,0.11,0.6,0.26,0.77,0.45c0.17,0.19,0.27,0.49,0.29,0.9l0.04,0.96
			c0.01,0.28,0.04,0.48,0.08,0.61c0.07,0.23,0.2,0.38,0.38,0.44v0.16h-1.46c-0.04-0.06-0.07-0.14-0.09-0.24
			c-0.03-0.1-0.05-0.29-0.06-0.57l-0.07-1.2c-0.03-0.47-0.24-0.78-0.62-0.94c-0.22-0.09-0.57-0.13-1.04-0.13h-2.63v3.08h-1.19V47.87
			z M162.17,51.16c0.54,0,0.97-0.09,1.29-0.28c0.32-0.18,0.47-0.51,0.47-0.99c0-0.51-0.22-0.86-0.67-1.05
			c-0.23-0.1-0.55-0.15-0.95-0.15h-2.82v2.45H162.17z"/>
		<path class="st1" d="M170.94,47.87h1.2v7.18h-1.2V47.87z"/>
		<path class="st1" d="M180.3,47.87h1.35l3.19,7.18h-1.3l-0.91-2.15h-3.45l-0.95,2.15H177L180.3,47.87z M182.27,52.11l-1.35-3.17
			l-1.4,3.17H182.27z"/>
	</g>
</g>
</svg>
