<svg xmlns="http://www.w3.org/2000/svg" width="71.462" height="71.462" viewBox="0 0 71.462 71.462">
  <circle id="Elipse_8" data-name="Elipse 8" cx="35.731" cy="35.731" r="35.731" fill="#e97d00"/>
  <g id="Grupo_27" data-name="Grupo 27" transform="translate(-740.406 -1126.875)">
    <g id="Grupo_26" data-name="Grupo 26">
      <path id="Caminho_28" data-name="Caminho 28" d="M750.59,1161.329a2.122,2.122,0,0,0,.5,2.23l2.384,2.384a2.134,2.134,0,0,0,3.014,0l.434-.433,2.463,2.464a3.088,3.088,0,0,1,.654.963,35.549,35.549,0,0,0,2.19,4.714l-2.849,2.607a4.3,4.3,0,0,0-.051,6.294l1.811,1.713a4.314,4.314,0,0,0,6.046-.137l3.052-3.161a24.339,24.339,0,0,1,7.481-4.8,11.4,11.4,0,0,0,7.5-7.766l-1.444-1.447,6.259-6.482a2.308,2.308,0,0,0,2.937-.274l.042-.042,1.713,1.712-.007.007a2.363,2.363,0,0,0,0,3.339l1.76,1.76a2.36,2.36,0,0,0,3.338,0l5.59-5.59a2.364,2.364,0,0,0,0-3.338l-1.76-1.76h0a2.357,2.357,0,0,0-3.153-.166l-1.733-1.732a2.378,2.378,0,0,0-.175-3.163l-7.271-7.271c-4.9-4.9-10.485-5.528-14.937-1.677a1.34,1.34,0,0,0,.717,2.34c1.173.143,4.027.657,5.193,2.343a3.4,3.4,0,0,1,.372,2.878,4.91,4.91,0,0,0,.961,4.236l-4.041,3.7a7.281,7.281,0,0,0-5.434-1.684l-2.021.24a3.069,3.069,0,0,1-2.549-.883l-1.293-1.292.4-.4a2.13,2.13,0,0,0,0-3.014l-2.384-2.384a2.121,2.121,0,0,0-2.221-.5l-3.646-3.645a2.609,2.609,0,0,0-3.685,0L746.947,1154a2.609,2.609,0,0,0,0,3.685Zm15.222,21.476a2.4,2.4,0,0,1-3.368.077l-1.811-1.713a2.392,2.392,0,0,1,.029-3.506l2.647-2.423a55.063,55.063,0,0,0,4.492,4.769,3.236,3.236,0,0,0,.391.332Zm28.539-23.995,3.066-3.066,1.712,1.713-3.066,3.065Zm7.941-1.179,1.76,1.76a.459.459,0,0,1,0,.647l-5.589,5.589a.458.458,0,0,1-.647,0l-1.76-1.76a.457.457,0,0,1,0-.646l5.59-5.59A.458.458,0,0,1,802.292,1157.631Zm-23.659-14.686c3.464-2.267,7.528-1.444,11.327,2.354l7.271,7.271a.473.473,0,0,1,0,.668l-5.614,5.614a.406.406,0,0,1-.575,0l-5.749-5.748a3,3,0,0,1-.793-2.814,5.261,5.261,0,0,0-.655-4.412c-1.214-1.756-3.448-2.563-5.212-2.933Zm.119,18.158c2.276-2.082,5.255-4.81,6.186-5.662l3.714,3.714-6.231,6.452-3.645-3.65a.614.614,0,0,1-.024-.854Zm-10.531-4.311a4.966,4.966,0,0,0,4.12,1.427l2.02-.24a5.327,5.327,0,0,1,3.786,1.1c-.827.758-.706.646-.729.669a2.516,2.516,0,0,0,.012,3.557l6.435,6.444a1.375,1.375,0,0,1-1.945,1.945,1.162,1.162,0,0,0-1.94,1.074,1.378,1.378,0,0,1-2.36,1.207,1.094,1.094,0,0,0-1.8,1.117,1.371,1.371,0,0,1-2.218,1.436,1.291,1.291,0,0,0-2.127,1.08,1.362,1.362,0,0,1-2.322,1.063c-2.619-2.738-3.63-3.473-4.919-5.407l-.012-.018a29.928,29.928,0,0,1-2.438-5.058,4.967,4.967,0,0,0-1.056-1.557l-2.463-2.464,8.664-8.665Zm-19.928-1.445,9.789-9.788a.7.7,0,0,1,.993,0l3.5,3.5-1.182,1.182a.952.952,0,0,0,1.346,1.346l1.882-1.881a.225.225,0,0,1,.321,0l2.385,2.384a.228.228,0,0,1,0,.322L755.138,1164.6a.228.228,0,0,1-.322,0l-2.384-2.384a.228.228,0,0,1,0-.322l7.16-7.159a.952.952,0,0,0-1.346-1.346l-6.454,6.453-3.5-3.5a.7.7,0,0,1,0-.994Z" fill="#fff"/>
    </g>
  </g>
</svg>
