<svg xmlns="http://www.w3.org/2000/svg" width="71.462" height="71.462" viewBox="0 0 71.462 71.462">
  <circle id="Elipse_10" data-name="Elipse 10" cx="35.731" cy="35.731" r="35.731" fill="#e97d00"/>
  <g id="Grupo_24" data-name="Grupo 24" transform="translate(-740.406 -1358.93)">
    <path id="Caminho_21" data-name="Caminho 21" d="M800.175,1394.661a23.974,23.974,0,0,0-7.04-17h0a24.019,24.019,0,0,0-8.436-5.469h0l-.027-.011h0a24.042,24.042,0,1,0-16.035,45.318.87.87,0,0,0,.567.224h.013l.1-.011a24.025,24.025,0,0,0,6.8.983h.035a24.034,24.034,0,0,0,24.023-24.037Zm-8.931,2.536a1.436,1.436,0,1,1-1.015.421A1.429,1.429,0,0,1,791.244,1397.2Zm-7.559,18.4v-13.2a2.87,2.87,0,0,1,2.87-2.87h1.606a3.246,3.246,0,1,0,0-1.782h-1.61a4.654,4.654,0,0,0-4.649,4.653v13.761a22.088,22.088,0,0,1-2.872.564v-.489a.882.882,0,1,0-1.764,0v.651c-.375.019-.75.036-1.129.036-.506,0-1.006-.025-1.505-.058v-21.45a4.65,4.65,0,0,0-4.649-4.653H754.234a22.245,22.245,0,0,1,29.227-17.109v10.568a4.655,4.655,0,0,0,4.653,4.654h1.3a3.176,3.176,0,0,0,3.028,2.32l.018.006h.051a3.216,3.216,0,0,0,.01-6.432h-.028a3.189,3.189,0,0,0-3.079,2.326h-1.3a2.87,2.87,0,0,1-2.87-2.87v-9.849a22.247,22.247,0,0,1-1.559,41.23Zm8.81-29.054a1.434,1.434,0,1,1-1.015.42A1.421,1.421,0,0,1,792.495,1386.542Zm-30.248,18.122a1.435,1.435,0,1,1,.421-1.016A1.432,1.432,0,0,1,762.247,1404.664Zm2.067-1.908a3.215,3.215,0,1,0-3.137,4.1l.018.006h.052a3.184,3.184,0,0,0,3.067-2.325h1.127a2.87,2.87,0,0,1,2.87,2.871v8.082a22.246,22.246,0,0,1-14.43-20.831c0-.716.04-1.424.106-2.123H769.98a2.873,2.873,0,0,1,2.87,2.871v21.256a22.166,22.166,0,0,1-2.756-.586v-8.669a4.654,4.654,0,0,0-4.653-4.654Z" fill="#fff"/>
    <path id="Caminho_22" data-name="Caminho 22" d="M777.676,1383.909a4.644,4.644,0,0,0-3.29-1.362h-1.229a3.246,3.246,0,1,0,0,1.782h1.229a2.873,2.873,0,0,1,2.871,2.872v20.969a.891.891,0,1,0,1.783,0V1387.2a4.648,4.648,0,0,0-1.364-3.292Zm-6.587.544a1.434,1.434,0,1,1,.421-1.014A1.431,1.431,0,0,1,771.089,1384.453Z" fill="#fff"/>
    <path id="Caminho_23" data-name="Caminho 23" d="M778.148,1410.06a.882.882,0,1,0,.882.882A.882.882,0,0,0,778.148,1410.06Z" fill="#fff"/>
    <path id="Caminho_24" data-name="Caminho 24" d="M778.148,1412.772a.883.883,0,1,0,.882.883A.882.882,0,0,0,778.148,1412.772Z" fill="#fff"/>
  </g>
</svg>
