<svg xmlns="http://www.w3.org/2000/svg" width="71.462" height="71.462" viewBox="0 0 71.462 71.462">
  <circle id="Elipse_14" data-name="Elipse 14" cx="35.731" cy="35.731" r="35.731" fill="#e97d00"/>
  <g id="Grupo_50" data-name="Grupo 50" transform="translate(-739.87 -1849.587)">
    <g id="Grupo_35" data-name="Grupo 35">
      <g id="Grupo_34" data-name="Grupo 34">
        <path id="Caminho_37" data-name="Caminho 37" d="M791.692,1869.849H759.511a4.322,4.322,0,0,0-4.317,4.317v20.407a4.322,4.322,0,0,0,4.317,4.317h10.424l-1.256,6.279h-4.066a.785.785,0,0,0,0,1.57H786.59a.785.785,0,0,0,0-1.57h-4.066l-1.256-6.279h10.424a4.322,4.322,0,0,0,4.317-4.317v-20.407A4.322,4.322,0,0,0,791.692,1869.849Zm-21.412,35.32,1.255-6.279h8.132l1.256,6.279Zm24.159-10.6a2.75,2.75,0,0,1-2.747,2.747H759.511a2.75,2.75,0,0,1-2.747-2.747v-1.962h37.675v1.962Zm-37.675-6.671v-13.736a2.75,2.75,0,0,1,2.747-2.747h32.181a2.75,2.75,0,0,1,2.747,2.747v16.875H756.764V1887.9Z" fill="#fff"/>
      </g>
    </g>
    <g id="Grupo_37" data-name="Grupo 37">
      <g id="Grupo_36" data-name="Grupo 36">
        <path id="Caminho_38" data-name="Caminho 38" d="M775.6,1893.4a1.57,1.57,0,1,0,1.57,1.57A1.571,1.571,0,0,0,775.6,1893.4Z" fill="#fff"/>
      </g>
    </g>
    <g id="Grupo_39" data-name="Grupo 39">
      <g id="Grupo_38" data-name="Grupo 38">
        <path id="Caminho_39" data-name="Caminho 39" d="M782.027,1884.881l-1.665-1.665,1.388-1.388a.785.785,0,0,0-.379-1.319l-7.215-1.665a.784.784,0,0,0-.941.941L774.88,1887a.786.786,0,0,0,1.32.379l1.387-1.388,1.665,1.665a.785.785,0,0,0,1.11,0l1.665-1.665A.784.784,0,0,0,782.027,1884.881Zm-2.22,1.11-1.665-1.665a.784.784,0,0,0-1.11,0l-.941.941-1.064-4.611,4.612,1.064-.942.941a.786.786,0,0,0,0,1.11l1.665,1.665Z" fill="#fff"/>
      </g>
    </g>
    <g id="Grupo_41" data-name="Grupo 41">
      <g id="Grupo_40" data-name="Grupo 40">
        <path id="Caminho_40" data-name="Caminho 40" d="M772.371,1876.889l-.785-.785a.785.785,0,1,0-1.11,1.11l.785.785a.785.785,0,1,0,1.11-1.11Z" fill="#fff"/>
      </g>
    </g>
    <g id="Grupo_43" data-name="Grupo 43">
      <g id="Grupo_42" data-name="Grupo 42">
        <path id="Caminho_41" data-name="Caminho 41" d="M770.84,1879.014h-1.11a.785.785,0,1,0,0,1.57h1.11a.785.785,0,1,0,0-1.57Z" fill="#fff"/>
      </g>
    </g>
    <g id="Grupo_45" data-name="Grupo 45">
      <g id="Grupo_44" data-name="Grupo 44">
        <path id="Caminho_42" data-name="Caminho 42" d="M772.371,1881.6a.786.786,0,0,0-1.11,0l-.785.785a.785.785,0,1,0,1.11,1.11l.785-.784A.787.787,0,0,0,772.371,1881.6Z" fill="#fff"/>
      </g>
    </g>
    <g id="Grupo_47" data-name="Grupo 47">
      <g id="Grupo_46" data-name="Grupo 46">
        <path id="Caminho_43" data-name="Caminho 43" d="M777.865,1876.1a.786.786,0,0,0-1.11,0l-.785.785a.785.785,0,1,0,1.11,1.11l.785-.785A.786.786,0,0,0,777.865,1876.1Z" fill="#fff"/>
      </g>
    </g>
    <g id="Grupo_49" data-name="Grupo 49">
      <g id="Grupo_48" data-name="Grupo 48">
        <path id="Caminho_44" data-name="Caminho 44" d="M774.17,1874.574a.785.785,0,0,0-.785.785v1.11a.785.785,0,1,0,1.57,0v-1.11A.784.784,0,0,0,774.17,1874.574Z" fill="#fff"/>
      </g>
    </g>
  </g>
</svg>
